<?xml version="1.0" standalone="no"?>
<!DOCTYPE svg PUBLIC "-//W3C//DTD SVG 20010904//EN"
 "http://www.w3.org/TR/2001/REC-SVG-20010904/DTD/svg10.dtd">
<svg version="1.0" xmlns="http://www.w3.org/2000/svg"
 width="236.000000pt" height="236.000000pt" viewBox="0 0 236.000000 236.000000"
 preserveAspectRatio="xMidYMid meet">
<metadata>
Created by potrace 1.14, written by Peter Selinger 2001-2017
</metadata>
<g transform="translate(0.000000,236.000000) scale(0.100000,-0.100000)"
fill="#000000" stroke="none">
<path d="M410 1181 l0 -1178 205 0 205 0 0 231 c0 127 1 569 1 981 l-1 750
565 -1 c311 0 565 2 566 5 3 19 4 368 1 379 -6 18 -497 16 -602 -3 -183 -32
-362 -111 -483 -213 -67 -57 -62 -65 -61 89 l1 139 -198 0 -199 0 0 -1179z"/>
</g>
</svg>
