<svg width="138" height="32" viewBox="0 0 138 32" fill="none" xmlns="http://www.w3.org/2000/svg">
<path d="M14.1159 10V13.6271H3.75748V31.5593H0V10H3.62208V12.5763C5.38234 10.9153 7.71807 10 10.1215 10H14.1159Z" fill="#E2FECD"/>
<path d="M35.6793 0.237793C38.0827 0.237793 40.4184 1.15305 42.1787 2.81406V0.237793H45.8008V21.7971H42.0433V3.83101H33.6482V0.237793H35.6793Z" fill="#E2FECD"/>
<path d="M25.896 18.6777V22.3049H17.5009L17.3655 21.2879C19.1257 19.6269 21.4615 18.7116 23.8649 18.7116H25.896V18.6777Z" fill="#E2FECD"/>
<path d="M31.2786 25.0508C31.0416 25.4237 30.7708 25.7626 30.4323 26.1016C28.9767 27.5593 27.1487 28.305 25.0161 28.305C22.9173 28.305 21.0894 27.5593 19.6338 26.1016C18.1781 24.644 17.4334 22.8135 17.4334 20.6101C17.4334 18.4067 18.1443 16.6101 19.6338 15.1525C21.0894 13.6949 22.9173 12.9491 25.0161 12.9491C27.1826 12.9491 28.9767 13.6949 30.4323 15.1525C31.8879 16.6101 32.6326 18.4406 32.6326 20.644C32.6326 21.2203 32.5649 21.7966 32.4634 22.3389H36.2208C36.2885 21.7966 36.3562 21.2542 36.3562 20.644C36.3562 17.4576 35.2391 14.7796 33.0388 12.5762C30.8385 10.3728 28.1304 9.28809 24.9822 9.28809C21.8341 9.28809 19.126 10.3728 16.9257 12.5762C14.7253 14.7796 13.6421 17.4576 13.6421 20.644C13.6421 23.8304 14.7253 26.5084 16.9257 28.7118C19.126 30.9152 21.8341 31.9999 24.9822 31.9999C28.1304 31.9999 30.8385 30.9152 33.0388 28.7118C34.1221 27.6271 34.9006 26.4067 35.4423 25.0508H31.2786Z" fill="#E2FECD"/>
<path d="M35.8484 22.3049H23.4927V18.7455C23.4927 18.7116 23.5265 18.6777 23.5604 18.6777H35.8484V22.3049Z" fill="#E2FECD"/>
<path d="M63.166 18.6777V22.3049H54.7709L54.6355 21.2879C56.3958 19.6269 58.7315 18.7116 61.1349 18.7116H63.166V18.6777Z" fill="#E2FECD"/>
<path d="M68.5483 25.0505C68.3114 25.4234 68.0406 25.7624 67.7021 26.1014C66.2465 27.559 64.4185 28.3047 62.2859 28.3047C60.1871 28.3047 58.3591 27.559 56.9035 26.1014C55.4479 24.6437 54.7032 22.8132 54.7032 20.6098C54.7032 18.4064 55.4479 16.6098 56.9035 15.1183C58.3591 13.6607 60.1871 12.9149 62.2859 12.9149C64.4523 12.9149 66.2465 13.6607 67.7021 15.1183C69.1577 16.5759 69.9024 18.4064 69.9024 20.6098C69.9024 21.1861 69.8347 21.7624 69.7331 22.3047H73.4906C73.5583 21.7624 73.626 21.22 73.626 20.6098C73.626 17.4234 72.5089 14.7454 70.3086 12.542C68.1083 10.3387 65.4002 9.25391 62.252 9.25391C59.1039 9.25391 56.3958 10.3387 54.1954 12.542C51.9951 14.7454 50.9119 17.4234 50.9119 20.6098C50.9119 23.7963 51.9951 26.4742 54.1954 28.6776C56.3958 30.881 59.1039 31.9658 62.252 31.9658C65.4002 31.9658 68.1083 30.881 70.3086 28.6776C71.3918 27.5929 72.1704 26.3725 72.712 25.0166H68.5483V25.0505Z" fill="#E2FECD"/>
<path d="M73.0844 22.3049H60.7288V18.7455C60.7288 18.7116 60.7626 18.6777 60.7965 18.6777H73.0844V22.3049Z" fill="#E2FECD"/>
<path d="M106.428 18.6777V22.3049H98.0331L97.8977 21.2879C99.658 19.6269 101.994 18.7116 104.397 18.7116H106.428V18.6777Z" fill="#E2FECD"/>
<path d="M111.811 25.0505C111.574 25.4234 111.303 25.7963 110.964 26.1014C109.509 27.559 107.681 28.3047 105.548 28.3047C103.449 28.3047 101.621 27.559 100.166 26.1014C98.7101 24.6437 97.9654 22.8132 97.9654 20.6098C97.9654 18.4064 98.7101 16.6098 100.166 15.1183C101.621 13.6607 103.449 12.9149 105.548 12.9149C107.715 12.9149 109.509 13.6607 110.964 15.1183C112.42 16.5759 113.165 18.4064 113.165 20.6098C113.165 21.1861 113.097 21.7624 112.995 22.3047H116.753C116.821 21.7624 116.888 21.22 116.888 20.6098C116.888 17.4234 115.771 14.7454 113.571 12.542C111.37 10.3387 108.662 9.25391 105.514 9.25391C102.366 9.25391 99.658 10.3387 97.4576 12.542C95.2573 14.7454 94.1741 17.4234 94.1741 20.6098C94.1741 23.7963 95.2573 26.4742 97.4576 28.6776C99.658 30.881 102.366 31.9658 105.514 31.9658C108.662 31.9658 111.37 30.881 113.571 28.6776C114.654 27.5929 115.433 26.3725 115.974 25.0166H111.811V25.0505Z" fill="#E2FECD"/>
<path d="M116.381 22.3049H104.025V18.7455C104.025 18.7116 104.059 18.6777 104.093 18.6777H116.381V22.3049Z" fill="#E2FECD"/>
<path d="M42.0432 31.4915V0H45.8007V31.4915H42.0432Z" fill="#E2FECD"/>
<path d="M50.9124 31.4912H36.9319V27.7285H50.9124V31.4912Z" fill="#E2FECD"/>
<path d="M94.3097 9.93213L85.7115 31.4914H81.3108L72.7126 9.93213C75.1499 9.93213 77.3503 11.4237 78.2304 13.7287L83.4773 27.4575L88.792 13.6948C89.6721 11.4237 91.8724 9.93213 94.3097 9.93213Z" fill="#E2FECD"/>
<path d="M137.809 31.4236C135.71 31.4236 134.017 29.7287 134.017 27.627V19.3558C134.017 16.6779 132.223 14.2033 129.583 13.6948C126.028 13.0169 122.948 15.7287 122.948 19.1524V27.6609C122.948 29.7626 121.255 31.4575 119.156 31.4575V19.5253C119.156 14.644 122.711 10.2711 127.552 9.79652C133.103 9.25415 137.809 13.627 137.809 19.1185V31.4236Z" fill="#E2FECD"/>
</svg>
