<svg width="1440" height="337" viewBox="0 0 1440 337" fill="none" xmlns="http://www.w3.org/2000/svg">
<path fill-rule="evenodd" clip-rule="evenodd" d="M425.773 303.279L425.773 41.8987L333.955 41.8987V2.59794L356.169 2.59794C381.787 2.59794 406.702 12.1049 425.773 29.4031V0L466.87 0V2.59794H466.873L466.873 238.402H466.87V303.279L522.78 303.279V344.434L466.87 344.434V344.438H425.773V344.434H369.868V303.279H425.773ZM144.393 109.376V149.047L31.0974 149.047L31.0974 345.18H-10L-10 109.376H29.6164L29.6164 137.554C48.8692 119.386 74.4162 109.376 100.704 109.376L144.393 109.376ZM236.484 243.959H171.966C175.147 259.984 182.632 273.826 194.277 285.487C210.197 301.43 230.191 309.587 253.146 309.587C276.472 309.587 296.465 301.43 312.386 285.487C316.088 281.78 319.05 278.072 321.642 273.994H367.182C361.258 288.824 352.742 302.172 340.895 314.036C316.828 338.135 287.209 350 252.776 350C218.343 350 188.723 338.135 164.657 314.036C140.591 289.936 128.743 260.646 128.743 225.795C128.743 190.943 140.591 161.653 164.657 137.553C188.723 113.454 218.343 101.59 252.776 101.59C287.209 101.59 316.828 113.454 340.895 137.553C364.961 161.653 377.179 190.943 377.179 225.795C377.179 232.468 376.438 238.4 375.698 244.332L375.698 244.333H334.6C334.624 244.208 334.647 244.084 334.67 243.959H262.773L236.484 243.959ZM334.051 204.288C330.566 189.517 323.304 176.665 312.386 165.731C296.465 149.789 276.842 141.632 253.146 141.632C230.191 141.632 210.197 149.789 194.277 165.731C177.986 181.674 170.211 201.324 170.211 225.424C170.211 227.635 170.279 229.812 170.416 231.955C188.567 215.255 212.118 205.68 236.558 204.736C236.685 204.485 236.955 204.288 237.225 204.288L334.051 204.288ZM559.684 243.959L623.831 243.959H650.49H758.971L763.415 243.959C764.156 238.026 764.896 232.094 764.896 225.421C764.896 190.569 752.678 161.279 728.612 137.179C704.546 113.08 674.926 101.215 640.493 101.215C606.06 101.215 576.441 113.08 552.375 137.179C528.309 161.279 516.461 190.569 516.461 225.421C516.461 260.272 528.309 289.562 552.375 313.662C576.441 337.761 606.06 349.626 640.493 349.626C674.926 349.626 704.546 337.761 728.612 313.662C740.46 301.797 748.976 288.45 754.899 273.62H709.359V273.99C706.767 278.069 703.805 281.776 700.103 285.484C684.182 301.427 664.189 309.583 640.864 309.583C617.908 309.583 597.915 301.427 581.994 285.484C570.35 273.824 562.866 259.982 559.684 243.959ZM700.103 165.357C711.114 176.383 718.405 189.36 721.856 204.288H624.572C624.296 204.288 624.021 204.493 623.898 204.751C599.593 205.779 576.191 215.341 558.134 231.954C557.997 229.811 557.928 227.633 557.928 225.421C557.928 201.321 566.074 181.671 581.994 165.357C597.915 149.414 617.908 141.258 640.864 141.258C664.559 141.258 684.182 149.414 700.103 165.357ZM1084.72 243.959H1020.21C1023.39 259.982 1030.87 273.824 1042.52 285.484C1058.44 301.427 1078.43 309.583 1101.39 309.583C1124.71 309.583 1144.7 301.427 1160.62 285.484C1164.33 282.147 1167.29 278.069 1169.88 273.99V273.62H1215.42C1209.5 288.45 1200.98 301.797 1189.13 313.662C1165.07 337.761 1135.45 349.626 1101.02 349.626C1066.58 349.626 1036.96 337.761 1012.9 313.662C988.831 289.562 976.983 260.272 976.983 225.421C976.983 190.569 988.831 161.279 1012.9 137.179C1036.96 113.08 1066.58 101.215 1101.02 101.215C1135.45 101.215 1165.07 113.08 1189.13 137.179C1213.2 161.279 1225.42 190.569 1225.42 225.421C1225.42 232.094 1224.68 238.026 1223.94 243.959L1219.86 243.959L1111.01 243.959H1084.72ZM1182.38 204.288C1178.93 189.36 1171.64 176.383 1160.62 165.357C1144.7 149.414 1125.08 141.258 1101.39 141.258C1078.43 141.258 1058.44 149.414 1042.52 165.357C1026.6 181.671 1018.45 201.321 1018.45 225.421C1018.45 227.633 1018.52 229.811 1018.66 231.955C1036.81 215.255 1060.36 205.68 1084.8 204.736C1084.92 204.485 1085.19 204.288 1085.46 204.288L1182.38 204.288ZM990.266 108.634L896.223 344.439L848.091 344.439L754.048 108.634C780.706 108.634 804.772 124.948 814.398 150.16L871.787 300.318L929.915 149.789C939.542 124.948 963.608 108.634 990.266 108.634ZM1398.04 302.171C1398.04 325.158 1416.55 343.696 1439.51 343.696V209.11C1439.51 149.047 1388.04 101.218 1327.32 107.151C1274.38 112.341 1235.5 160.169 1235.5 213.559V344.067C1258.46 344.067 1276.97 325.529 1276.97 302.542V209.481C1276.97 172.034 1310.66 142.373 1349.54 149.788C1378.42 155.35 1398.04 182.415 1398.04 211.705V302.171Z" fill="url(#paint0_radial_32_1486)"/>
<defs>
<radialGradient id="paint0_radial_32_1486" cx="0" cy="0" r="1" gradientUnits="userSpaceOnUse" gradientTransform="translate(106.557 186.278) rotate(3.53229) scale(1369.68 5898.53)">
<stop stop-color="#E2FECD"/>
<stop offset="1" stop-color="#82999E" stop-opacity="0"/>
</radialGradient>
</defs>
</svg>
